<svg id="visual" viewBox="0 0 960 540" width="960" height="540" xmlns="http://www.w3.org/2000/svg" xmlns:xlink="http://www.w3.org/1999/xlink" version="1.1"><rect x="0" y="0" width="960" height="540" fill="#001220"></rect><defs><linearGradient id="grad1_0" x1="43.8%" y1="100%" x2="100%" y2="0%"><stop offset="14.444444444444446%" stop-color="#001220" stop-opacity="1"></stop><stop offset="85.55555555555554%" stop-color="#001220" stop-opacity="1"></stop></linearGradient></defs><defs><linearGradient id="grad2_0" x1="0%" y1="100%" x2="56.3%" y2="0%"><stop offset="14.444444444444446%" stop-color="#001220" stop-opacity="1"></stop><stop offset="85.55555555555554%" stop-color="#001220" stop-opacity="1"></stop></linearGradient></defs><g transform="translate(960, 540)"><path d="M-189 0C-189.7 -27.5 -190.3 -55 -174.6 -72.3C-158.9 -89.7 -126.9 -96.9 -105.4 -105.4C-83.8 -113.8 -72.8 -123.5 -57 -137.7C-41.2 -151.8 -20.6 -170.4 0 -189L0 0Z" fill="#0066FF"></path></g><g transform="translate(0, 0)"><path d="M189 0C190.2 28.1 191.3 56.2 174.6 72.3C157.9 88.4 123.4 92.5 102.5 102.5C81.7 112.6 74.5 128.7 59.7 144.1C44.9 159.5 22.4 174.3 0 189L0 0Z" fill="#0066FF"></path></g></svg>